<svg width="1367" height="650" viewBox="0 0 1367 650" fill="none" xmlns="http://www.w3.org/2000/svg">
<path d="M483.903 305.483C483.654 305.604 483.551 305.903 483.671 306.151C483.792 306.4 484.091 306.504 484.339 306.383L483.903 305.483ZM809.625 357.929C809.626 358.206 809.851 358.429 810.127 358.428C810.403 358.427 810.626 358.202 810.625 357.926L809.625 357.929ZM748.467 531.011C748.344 530.764 748.044 530.663 747.796 530.786C747.549 530.908 747.448 531.208 747.571 531.456L748.467 531.011ZM1068.12 338.93L1068.62 338.962L1068.62 338.946V338.93H1068.12ZM0.194352 0.47163C-0.0791212 0.433328 -0.331865 0.623972 -0.370167 0.897445C-0.408469 1.17092 -0.217825 1.42366 0.0556481 1.46196L0.194352 0.47163ZM298.125 212.944H298.625V212.904L298.619 212.866L298.125 212.944ZM297.625 332.933C297.626 333.209 297.851 333.432 298.127 333.43C298.403 333.429 298.626 333.204 298.625 332.928L297.625 332.933ZM1068.12 224.942L1067.63 224.868L1067.62 224.905V224.942H1068.12ZM1365.83 202.351C1366.06 202.512 1366.37 202.461 1366.53 202.236L1369.16 198.581C1369.32 198.357 1369.27 198.044 1369.04 197.883C1368.82 197.722 1368.5 197.773 1368.34 197.998L1366.01 201.247L1362.76 198.914C1362.54 198.753 1362.22 198.804 1362.06 199.029C1361.9 199.253 1361.95 199.565 1362.18 199.726L1365.83 202.351ZM493.13 302.23C493.381 302.114 493.491 301.817 493.376 301.567C493.26 301.316 492.963 301.206 492.712 301.321L493.13 302.23ZM510.61 293.499C510.355 293.605 510.234 293.897 510.34 294.152C510.446 294.408 510.738 294.529 510.993 294.423L510.61 293.499ZM529.123 287.303C529.382 287.207 529.514 286.919 529.418 286.66C529.322 286.402 529.034 286.27 528.775 286.366L529.123 287.303ZM547.2 279.908C546.938 279.994 546.795 280.277 546.882 280.539C546.968 280.801 547.251 280.944 547.513 280.857L547.2 279.908ZM566.129 275.098C566.394 275.022 566.547 274.744 566.47 274.479C566.393 274.214 566.116 274.061 565.851 274.138L566.129 275.098ZM584.712 269.078C584.444 269.144 584.28 269.415 584.346 269.683C584.413 269.951 584.684 270.115 584.952 270.048L584.712 269.078ZM603.944 265.752C604.215 265.696 604.389 265.432 604.334 265.161C604.279 264.891 604.014 264.716 603.744 264.772L603.944 265.752ZM622.965 261.269C622.692 261.313 622.506 261.569 622.55 261.842C622.593 262.115 622.849 262.3 623.122 262.257L622.965 261.269ZM642.423 259.652C642.698 259.622 642.896 259.375 642.866 259.1C642.836 258.826 642.589 258.628 642.314 258.658L642.423 259.652ZM661.775 257.044C661.499 257.059 661.288 257.295 661.303 257.571C661.318 257.847 661.554 258.058 661.829 258.043L661.775 257.044ZM681.298 257.577C681.574 257.58 681.8 257.358 681.802 257.082C681.805 256.805 681.583 256.58 681.307 256.577L681.298 257.577ZM700.828 257.46C700.553 257.437 700.311 257.641 700.288 257.916C700.264 258.191 700.469 258.433 700.744 258.456L700.828 257.46ZM720.002 260.943C720.273 260.991 720.533 260.81 720.581 260.538C720.63 260.266 720.449 260.007 720.177 259.958L720.002 260.943ZM739.234 264.455C738.969 264.375 738.691 264.525 738.611 264.79C738.532 265.054 738.682 265.333 738.946 265.413L739.234 264.455ZM757.097 272.301C757.347 272.418 757.645 272.311 757.763 272.061C757.88 271.811 757.773 271.513 757.523 271.396L757.097 272.301ZM774.402 281.277C774.178 281.115 773.865 281.165 773.703 281.389C773.542 281.612 773.592 281.925 773.815 282.087L774.402 281.277ZM788.144 295.066C788.327 295.273 788.643 295.294 788.85 295.112C789.058 294.93 789.078 294.614 788.896 294.406L788.144 295.066ZM799.946 310.537C799.818 310.293 799.516 310.198 799.271 310.326C799.027 310.453 798.932 310.755 799.06 311L799.946 310.537ZM806.017 329.032C806.088 329.299 806.362 329.458 806.629 329.387C806.895 329.315 807.054 329.041 806.983 328.775L806.017 329.032ZM810.226 348.083C810.204 347.807 809.963 347.602 809.688 347.624C809.413 347.646 809.207 347.886 809.229 348.162L810.226 348.083ZM752.072 540.242C752.201 540.486 752.503 540.58 752.747 540.451C752.992 540.322 753.085 540.019 752.956 539.775L752.072 540.242ZM762.448 556.635C762.306 556.398 761.999 556.321 761.762 556.464C761.525 556.606 761.449 556.913 761.591 557.15L762.448 556.635ZM772.085 573.479C772.242 573.707 772.553 573.764 772.78 573.607C773.008 573.451 773.065 573.139 772.908 572.912L772.085 573.479ZM784.445 588.451C784.272 588.235 783.958 588.201 783.742 588.374C783.527 588.546 783.492 588.861 783.665 589.076L784.445 588.451ZM796.442 603.72C796.632 603.919 796.949 603.927 797.148 603.737C797.348 603.546 797.356 603.23 797.166 603.03L796.442 603.72ZM811.163 616.346C810.953 616.166 810.637 616.19 810.458 616.4C810.278 616.61 810.302 616.925 810.512 617.105L811.163 616.346ZM825.938 628.836C826.167 628.989 826.478 628.927 826.631 628.697C826.784 628.468 826.722 628.157 826.493 628.004L825.938 628.836ZM843.281 637.589C843.031 637.47 842.733 637.576 842.614 637.825C842.495 638.074 842.601 638.373 842.85 638.492L843.281 637.589ZM861.031 645.415C861.297 645.491 861.574 645.337 861.65 645.072C861.726 644.806 861.572 644.53 861.307 644.454L861.031 645.415ZM880.22 648.035C879.945 648.01 879.702 648.212 879.676 648.487C879.65 648.762 879.852 649.005 880.127 649.031L880.22 648.035ZM899.584 648.953C899.859 648.925 900.059 648.68 900.031 648.405C900.003 648.13 899.758 647.93 899.483 647.958L899.584 648.953ZM918.371 644.194C918.106 644.273 917.956 644.552 918.035 644.816C918.114 645.081 918.392 645.231 918.657 645.152L918.371 644.194ZM936.733 637.989C936.981 637.866 937.081 637.566 936.959 637.319C936.836 637.072 936.536 636.971 936.288 637.094L936.733 637.989ZM952.894 627.197C952.668 627.355 952.613 627.667 952.771 627.893C952.929 628.12 953.241 628.175 953.467 628.017L952.894 627.197ZM968.607 615.909C968.812 615.724 968.828 615.408 968.643 615.203C968.457 614.998 968.141 614.982 967.936 615.168L968.607 615.909ZM981.536 601.43C981.352 601.636 981.37 601.952 981.576 602.136C981.782 602.32 982.098 602.302 982.282 602.096L981.536 601.43ZM994.549 586.989C994.713 586.767 994.667 586.454 994.445 586.289C994.223 586.125 993.91 586.171 993.745 586.393L994.549 586.989ZM1004.66 570.378C1004.51 570.612 1004.58 570.92 1004.81 571.067C1005.05 571.214 1005.36 571.143 1005.5 570.909L1004.66 570.378ZM1015.26 554.098C1015.39 553.854 1015.3 553.551 1015.05 553.421C1014.81 553.29 1014.51 553.381 1014.38 553.625L1015.26 554.098ZM1023.01 536.308C1022.9 536.559 1023.01 536.856 1023.26 536.972C1023.51 537.088 1023.81 536.979 1023.92 536.728L1023.01 536.308ZM1031.6 518.925C1031.7 518.668 1031.58 518.377 1031.32 518.275C1031.07 518.172 1030.78 518.296 1030.67 518.552L1031.6 518.925ZM1037.44 500.443C1037.35 500.704 1037.49 500.989 1037.75 501.08C1038.01 501.17 1038.29 501.032 1038.39 500.772L1037.44 500.443ZM1044.36 482.326C1044.44 482.061 1044.29 481.782 1044.02 481.703C1043.76 481.623 1043.48 481.773 1043.4 482.037L1044.36 482.326ZM1048.62 463.373C1048.55 463.64 1048.71 463.913 1048.98 463.983C1049.25 464.052 1049.52 463.891 1049.59 463.624L1048.62 463.373ZM1054.14 444.689C1054.2 444.42 1054.03 444.153 1053.76 444.093C1053.49 444.033 1053.22 444.203 1053.16 444.473L1054.14 444.689ZM1057.05 425.468C1056.99 425.739 1057.17 426.001 1057.44 426.052C1057.72 426.102 1057.98 425.924 1058.03 425.652L1057.05 425.468ZM1061.3 406.615C1061.34 406.342 1061.16 406.086 1060.88 406.043C1060.61 406.001 1060.36 406.187 1060.31 406.46L1061.3 406.615ZM1063.04 387.267C1063 387.541 1063.2 387.791 1063.47 387.826C1063.74 387.861 1063.99 387.667 1064.03 387.393L1063.04 387.267ZM1066.25 367.981C1066.27 367.706 1066.07 367.461 1065.8 367.433C1065.52 367.406 1065.28 367.606 1065.25 367.881L1066.25 367.981ZM1066.94 348.709C1066.92 348.984 1067.13 349.224 1067.4 349.245C1067.68 349.266 1067.92 349.06 1067.94 348.785L1066.94 348.709ZM1068.62 329.431C1068.62 329.155 1068.4 328.931 1068.12 328.931C1067.85 328.931 1067.62 329.155 1067.62 329.431H1068.62ZM1067.62 310.433C1067.62 310.709 1067.85 310.933 1068.12 310.933C1068.4 310.933 1068.62 310.709 1068.62 310.433H1067.62ZM1068.62 291.435C1068.62 291.159 1068.4 290.935 1068.12 290.935C1067.85 290.935 1067.62 291.159 1067.62 291.435H1068.62ZM1067.62 272.437C1067.62 272.713 1067.85 272.937 1068.12 272.937C1068.4 272.937 1068.62 272.713 1068.62 272.437H1067.62ZM1068.62 253.439C1068.62 253.163 1068.4 252.939 1068.12 252.939C1067.85 252.939 1067.62 253.163 1067.62 253.439H1068.62ZM1067.62 234.441C1067.62 234.717 1067.85 234.941 1068.12 234.941C1068.4 234.941 1068.62 234.717 1068.62 234.441H1067.62ZM1070.25 215.115C1070.3 214.843 1070.12 214.583 1069.84 214.535C1069.57 214.486 1069.31 214.667 1069.26 214.939L1070.25 215.115ZM1073.28 195.613C1073.21 195.882 1073.38 196.152 1073.65 196.216C1073.91 196.28 1074.18 196.114 1074.25 195.845L1073.28 195.613ZM1079.42 176.857C1079.51 176.593 1079.36 176.313 1079.09 176.231C1078.83 176.15 1078.55 176.298 1078.47 176.562L1079.42 176.857ZM1084.99 157.902C1084.89 158.159 1085.01 158.45 1085.27 158.551C1085.53 158.652 1085.82 158.525 1085.92 158.268L1084.99 157.902ZM1093.88 140.259C1094.01 140.012 1093.91 139.712 1093.66 139.589C1093.41 139.467 1093.11 139.568 1092.99 139.815L1093.88 140.259ZM1102.61 122.548C1102.47 122.782 1102.54 123.09 1102.77 123.237C1103.01 123.383 1103.32 123.312 1103.46 123.078L1102.61 122.548ZM1114.77 107.04C1114.94 106.824 1114.91 106.509 1114.69 106.337C1114.47 106.165 1114.16 106.201 1113.99 106.417L1114.77 107.04ZM1127.23 91.7441C1127.04 91.9366 1127.03 92.2532 1127.22 92.4512C1127.42 92.6492 1127.73 92.6536 1127.93 92.4611L1127.23 91.7441ZM1142.97 79.7669C1143.19 79.6045 1143.24 79.2918 1143.08 79.0684C1142.92 78.8451 1142.6 78.7956 1142.38 78.958L1142.97 79.7669ZM1159.19 68.5973C1158.94 68.7234 1158.85 69.0248 1158.97 69.2705C1159.1 69.5161 1159.4 69.6129 1159.65 69.4868L1159.19 68.5973ZM1177.8 61.9428C1178.07 61.8579 1178.21 61.5761 1178.13 61.3133C1178.04 61.0505 1177.76 60.9063 1177.5 60.9911L1177.8 61.9428ZM1196.76 56.4782C1196.49 56.5189 1196.3 56.7734 1196.34 57.0465C1196.38 57.3196 1196.63 57.508 1196.91 57.4672L1196.76 56.4782ZM1216.5 56.1492C1216.78 56.1528 1217 55.9319 1217.01 55.6558C1217.01 55.3796 1216.79 55.1529 1216.51 55.1493L1216.5 56.1492ZM1236.22 56.9485C1235.95 56.9024 1235.69 57.0857 1235.65 57.358C1235.6 57.6302 1235.78 57.8883 1236.06 57.9345L1236.22 56.9485ZM1255.14 62.6435C1255.4 62.729 1255.68 62.5854 1255.77 62.3229C1255.85 62.0603 1255.71 61.7781 1255.45 61.6926L1255.14 62.6435ZM1273.78 69.1188C1273.53 68.9978 1273.23 69.1009 1273.11 69.3491C1272.99 69.5973 1273.1 69.8966 1273.34 70.0177L1273.78 69.1188ZM1290.42 79.795C1290.65 79.9476 1290.96 79.8847 1291.11 79.6545C1291.26 79.4244 1291.2 79.1141 1290.97 78.9615L1290.42 79.795ZM1306.73 90.903C1306.52 90.7228 1306.2 90.7465 1306.02 90.9557C1305.84 91.165 1305.86 91.4807 1306.07 91.6609L1306.73 90.903ZM1320.19 105.376C1320.37 105.58 1320.69 105.595 1320.89 105.408C1321.1 105.222 1321.11 104.906 1320.92 104.702L1320.19 105.376ZM1333.39 120.055C1333.23 119.831 1332.92 119.781 1332.69 119.942C1332.47 120.104 1332.42 120.416 1332.58 120.64L1333.39 120.055ZM1343.18 137.202C1343.31 137.442 1343.62 137.527 1343.86 137.391C1344.1 137.255 1344.18 136.95 1344.05 136.71L1343.18 137.202ZM1352.85 154.456C1352.74 154.202 1352.45 154.086 1352.19 154.195C1351.94 154.305 1351.82 154.599 1351.93 154.852L1352.85 154.456ZM1358.8 173.28C1358.88 173.543 1359.16 173.689 1359.42 173.606C1359.69 173.522 1359.83 173.241 1359.75 172.978L1358.8 173.28ZM1364.78 192.079C1364.72 191.809 1364.45 191.637 1364.18 191.694C1363.91 191.751 1363.74 192.017 1363.8 192.287L1364.78 192.079ZM9.91903 2.87129C10.1923 2.91115 10.4461 2.72195 10.486 2.4487C10.5258 2.17545 10.3366 1.92162 10.0634 1.88176L9.91903 2.87129ZM29.756 4.89099C29.4834 4.84725 29.2269 5.03282 29.1831 5.30547C29.1394 5.57813 29.325 5.83462 29.5976 5.87836L29.756 4.89099ZM49.2278 9.20529C49.4996 9.25403 49.7595 9.07319 49.8082 8.80138C49.8569 8.52957 49.6761 8.26972 49.4043 8.22099L49.2278 9.20529ZM68.9741 11.9534C68.7034 11.8985 68.4395 12.0733 68.3846 12.3439C68.3296 12.6146 68.5045 12.8785 68.7751 12.9334L68.9741 11.9534ZM88.2266 17.1584C88.4956 17.2209 88.7643 17.0535 88.8268 16.7845C88.8894 16.5156 88.722 16.2469 88.453 16.1843L88.2266 17.1584ZM107.79 21.0146C107.523 20.943 107.249 21.1012 107.177 21.3679C107.106 21.6346 107.264 21.9088 107.531 21.9804L107.79 21.0146ZM126.634 27.5134C126.897 27.5957 127.178 27.4488 127.26 27.1852C127.342 26.9216 127.195 26.6412 126.932 26.5589L126.634 27.5134ZM145.827 32.9505C145.567 32.8556 145.28 32.9889 145.185 33.2482C145.09 33.5075 145.224 33.7947 145.483 33.8896L145.827 32.9505ZM163.949 41.2333C164.203 41.3428 164.497 41.226 164.607 40.9725C164.716 40.719 164.599 40.4247 164.346 40.3152L163.949 41.2333ZM182.394 48.8082C182.149 48.6822 181.847 48.7793 181.721 49.0251C181.595 49.2708 181.692 49.5721 181.938 49.6981L182.394 48.8082ZM199.276 59.4162C199.511 59.5604 199.819 59.4865 199.963 59.2511C200.108 59.0156 200.034 58.7078 199.798 58.5635L199.276 59.4162ZM216.351 69.6929C216.128 69.529 215.815 69.5762 215.651 69.7984C215.488 70.0206 215.535 70.3336 215.757 70.4976L216.351 69.6929ZM231.168 83.0206C231.373 83.2048 231.689 83.1874 231.874 82.9817C232.058 82.776 232.041 82.4599 231.835 82.2756L231.168 83.0206ZM246.013 96.3159C245.827 96.1119 245.511 96.0973 245.307 96.2834C245.103 96.4694 245.088 96.7857 245.274 96.9897L246.013 96.3159ZM257.866 112.325C258.03 112.547 258.343 112.595 258.566 112.431C258.788 112.267 258.835 111.954 258.671 111.731L257.866 112.325ZM269.673 128.385C269.532 128.147 269.226 128.067 268.988 128.208C268.75 128.348 268.671 128.654 268.811 128.892L269.673 128.385ZM278.037 146.48C278.154 146.73 278.451 146.839 278.701 146.723C278.952 146.607 279.061 146.309 278.944 146.059L278.037 146.48ZM286.496 164.498C286.403 164.238 286.117 164.103 285.857 164.196C285.597 164.289 285.462 164.576 285.555 164.836L286.496 164.498ZM291.482 183.833C291.554 184.1 291.828 184.258 292.095 184.186C292.361 184.115 292.52 183.84 292.448 183.574L291.482 183.833ZM296.893 202.978C296.841 202.707 296.579 202.529 296.307 202.581C296.036 202.633 295.859 202.895 295.911 203.166L296.893 202.978ZM297.618 222.968C297.618 223.244 297.841 223.469 298.117 223.469C298.393 223.469 298.618 223.246 298.618 222.97L297.618 222.968ZM298.559 242.946C298.56 242.67 298.337 242.445 298.061 242.444C297.785 242.442 297.56 242.665 297.559 242.941L298.559 242.946ZM297.477 262.925C297.476 263.201 297.699 263.426 297.975 263.426C298.251 263.427 298.476 263.204 298.477 262.928L297.477 262.925ZM298.458 282.911C298.458 282.635 298.234 282.411 297.958 282.411C297.682 282.412 297.458 282.636 297.458 282.912L298.458 282.911ZM297.5 302.915C297.501 303.191 297.726 303.414 298.002 303.413C298.278 303.412 298.501 303.188 298.5 302.912L297.5 302.915ZM298.577 322.876C298.576 322.6 298.351 322.377 298.075 322.379C297.799 322.38 297.576 322.605 297.577 322.881L298.577 322.876ZM484.339 306.383C487.243 304.976 490.174 303.591 493.13 302.23L492.712 301.321C489.75 302.685 486.813 304.073 483.903 305.483L484.339 306.383ZM510.993 294.423C516.966 291.947 523.016 289.572 529.123 287.303L528.775 286.366C522.656 288.638 516.595 291.019 510.61 293.499L510.993 294.423ZM547.513 280.857C553.687 278.821 559.899 276.898 566.129 275.098L565.851 274.138C559.609 275.941 553.386 277.867 547.2 279.908L547.513 280.857ZM584.952 270.048C591.29 268.48 597.628 267.045 603.944 265.752L603.744 264.772C597.414 266.068 591.063 267.506 584.712 269.078L584.952 270.048ZM623.122 262.257C629.608 261.224 636.049 260.353 642.423 259.652L642.314 258.658C635.923 259.36 629.466 260.234 622.965 261.269L623.122 262.257ZM661.829 258.043C668.429 257.681 674.928 257.522 681.298 257.577L681.307 256.577C674.914 256.522 668.394 256.681 661.775 257.044L661.829 258.043ZM700.744 258.456C707.36 259.014 713.791 259.838 720.002 260.943L720.177 259.958C713.934 258.848 707.472 258.02 700.828 257.46L700.744 258.456ZM738.946 265.413C745.335 267.332 751.402 269.622 757.097 272.301L757.523 271.396C751.778 268.694 745.666 266.388 739.234 264.455L738.946 265.413ZM773.815 282.087C779.111 285.92 783.908 290.238 788.144 295.066L788.896 294.406C784.607 289.519 779.754 285.151 774.402 281.277L773.815 282.087ZM799.06 311C801.945 316.526 804.281 322.529 806.017 329.032L806.983 328.775C805.229 322.203 802.866 316.13 799.946 310.537L799.06 311ZM809.229 348.162C809.48 351.323 809.613 354.578 809.625 357.929L810.625 357.926C810.613 354.55 810.479 351.27 810.226 348.083L809.229 348.162ZM747.571 531.456C749.054 534.443 750.555 537.371 752.072 540.242L752.956 539.775C751.443 536.912 749.946 533.99 748.467 531.011L747.571 531.456ZM761.591 557.15C765.021 562.863 768.521 568.306 772.085 573.479L772.908 572.912C769.357 567.757 765.868 562.332 762.448 556.635L761.591 557.15ZM783.665 589.076C787.855 594.302 792.118 599.182 796.442 603.72L797.166 603.03C792.862 598.514 788.619 593.655 784.445 588.451L783.665 589.076ZM810.512 617.105C815.593 621.459 820.74 625.368 825.938 628.836L826.493 628.004C821.331 624.56 816.215 620.675 811.163 616.346L810.512 617.105ZM842.85 638.492C848.876 641.367 854.944 643.673 861.031 645.415L861.307 644.454C855.275 642.728 849.258 640.442 843.281 637.589L842.85 638.492ZM880.127 649.031C886.631 649.638 893.126 649.61 899.584 648.953L899.483 647.958C893.089 648.608 886.659 648.636 880.22 648.035L880.127 649.031ZM918.657 645.152C924.752 643.334 930.786 640.944 936.733 637.989L936.288 637.094C930.39 640.024 924.409 642.393 918.371 644.194L918.657 645.152ZM953.467 628.017C958.608 624.424 963.661 620.387 968.607 615.909L967.936 615.168C963.019 619.619 957.999 623.63 952.894 627.197L953.467 628.017ZM982.282 602.096C986.471 597.401 990.564 592.364 994.549 586.989L993.745 586.393C989.778 591.745 985.704 596.759 981.536 601.43L982.282 602.096ZM1005.5 570.909C1008.85 565.57 1012.11 559.965 1015.26 554.098L1014.38 553.625C1011.24 559.473 1007.99 565.058 1004.66 570.378L1005.5 570.909ZM1023.92 536.728C1026.57 531.005 1029.14 525.07 1031.6 518.925L1030.67 518.552C1028.21 524.682 1025.66 530.601 1023.01 536.308L1023.92 536.728ZM1038.39 500.772C1040.46 494.796 1042.46 488.647 1044.36 482.326L1043.4 482.037C1041.5 488.346 1039.51 494.481 1037.44 500.443L1038.39 500.772ZM1049.59 463.624C1051.19 457.459 1052.71 451.148 1054.14 444.689L1053.16 444.473C1051.73 450.92 1050.22 457.22 1048.62 463.373L1049.59 463.624ZM1058.03 425.652C1059.2 419.43 1060.29 413.084 1061.3 406.615L1060.31 406.46C1059.3 412.92 1058.21 419.256 1057.05 425.468L1058.03 425.652ZM1064.03 387.393C1064.84 381.033 1065.58 374.562 1066.25 367.981L1065.25 367.881C1064.59 374.453 1063.85 380.915 1063.04 387.267L1064.03 387.393ZM1067.94 348.785C1068.18 345.535 1068.41 342.261 1068.62 338.962L1067.63 338.898C1067.42 342.193 1067.19 345.464 1066.94 348.709L1067.94 348.785ZM1068.62 338.93V329.431H1067.62V338.93H1068.62ZM1068.62 310.433V291.435H1067.62V310.433H1068.62ZM1068.62 272.437V253.439H1067.62V272.437H1068.62ZM1068.62 234.441V224.942H1067.62V234.441H1068.62ZM1068.62 225.017C1069.13 221.661 1069.67 218.361 1070.25 215.115L1069.26 214.939C1068.68 218.194 1068.14 221.504 1067.63 224.868L1068.62 225.017ZM1074.25 195.845C1075.82 189.264 1077.55 182.936 1079.42 176.857L1078.47 176.562C1076.58 182.662 1074.85 189.011 1073.28 195.613L1074.25 195.845ZM1085.92 158.268C1088.4 151.951 1091.06 145.95 1093.88 140.259L1092.99 139.815C1090.15 145.532 1087.48 151.559 1084.99 157.902L1085.92 158.268ZM1103.46 123.078C1107.05 117.341 1110.83 111.998 1114.77 107.04L1113.99 106.417C1110.02 111.406 1106.22 116.78 1102.61 122.548L1103.46 123.078ZM1127.93 92.4611C1132.77 87.7525 1137.8 83.5257 1142.97 79.7669L1142.38 78.958C1137.17 82.7454 1132.11 87.003 1127.23 91.7441L1127.93 92.4611ZM1159.65 69.4868C1165.58 66.4386 1171.65 63.9298 1177.8 61.9428L1177.5 60.9911C1171.29 62.9948 1165.17 65.5244 1159.19 68.5973L1159.65 69.4868ZM1196.91 57.4672C1203.41 56.497 1209.95 56.064 1216.5 56.1492L1216.51 55.1493C1209.91 55.0634 1203.31 55.4998 1196.76 56.4782L1196.91 57.4672ZM1236.06 57.9345C1242.48 59.0225 1248.86 60.5983 1255.14 62.6435L1255.45 61.6926C1249.12 59.6326 1242.7 58.0449 1236.22 56.9485L1236.06 57.9345ZM1273.34 70.0177C1279.18 72.8626 1284.88 76.1273 1290.42 79.795L1290.97 78.9615C1285.4 75.2699 1279.66 71.9833 1273.78 69.1188L1273.34 70.0177ZM1306.07 91.6609C1310.98 95.8867 1315.7 100.463 1320.19 105.376L1320.92 104.702C1316.41 99.7596 1311.67 95.1551 1306.73 90.903L1306.07 91.6609ZM1332.58 120.64C1336.36 125.878 1339.9 131.402 1343.18 137.202L1344.05 136.71C1340.75 130.879 1337.19 125.323 1333.39 120.055L1332.58 120.64ZM1351.93 154.852C1354.49 160.768 1356.78 166.913 1358.8 173.28L1359.75 172.978C1357.73 166.58 1355.42 160.402 1352.85 154.456L1351.93 154.852ZM1363.8 192.287C1364.48 195.487 1365.09 198.733 1365.63 202.026L1366.62 201.864C1366.08 198.556 1365.46 195.294 1364.78 192.079L1363.8 192.287ZM0.0556481 1.46196C3.35251 1.92371 6.64064 2.39307 9.91903 2.87129L10.0634 1.88176C6.78296 1.40325 3.49294 0.933623 0.194352 0.47163L0.0556481 1.46196ZM29.5976 5.87836C36.193 6.93647 42.7392 8.0419 49.2278 9.20529L49.4043 8.22099C42.9091 7.0564 36.3567 5.94995 29.756 4.89099L29.5976 5.87836ZM68.7751 12.9334C75.3328 14.2649 81.8198 15.6693 88.2266 17.1584L88.453 16.1843C82.0363 14.693 75.5401 13.2866 68.9741 11.9534L68.7751 12.9334ZM107.531 21.9804C113.998 23.7166 120.37 25.5566 126.634 27.5134L126.932 26.5589C120.654 24.5978 114.27 22.754 107.79 21.0146L107.531 21.9804ZM145.483 33.8896C151.771 36.1915 157.93 38.6345 163.949 41.2333L164.346 40.3152C158.308 37.7084 152.131 35.2585 145.827 32.9505L145.483 33.8896ZM181.938 49.6981C187.887 52.7474 193.67 55.9812 199.276 59.4162L199.798 58.5635C194.17 55.1146 188.364 51.8684 182.394 48.8082L181.938 49.6981ZM215.757 70.4976C221.098 74.4389 226.24 78.6074 231.168 83.0206L231.835 82.2756C226.883 77.8406 221.717 73.6522 216.351 69.6929L215.757 70.4976ZM245.274 96.9897C249.698 101.841 253.9 106.947 257.866 112.325L258.671 111.731C254.684 106.325 250.46 101.192 246.013 96.3159L245.274 96.9897ZM268.811 128.892C272.112 134.492 275.191 140.35 278.037 146.48L278.944 146.059C276.085 139.899 272.99 134.013 269.673 128.385L268.811 128.892ZM285.555 164.836C287.738 170.925 289.716 177.254 291.482 183.833L292.448 183.574C290.675 176.969 288.688 170.614 286.496 164.498L285.555 164.836ZM295.911 203.166C296.531 206.397 297.104 209.681 297.631 213.021L298.619 212.866C298.09 209.515 297.515 206.219 296.893 202.978L295.911 203.166ZM297.625 212.944C297.625 216.567 297.622 219.887 297.618 222.968L298.618 222.97C298.622 219.887 298.625 216.567 298.625 212.944H297.625ZM297.559 242.941C297.529 249.67 297.497 255.782 297.477 262.925L298.477 262.928C298.497 255.786 298.529 249.676 298.559 242.946L297.559 242.941ZM297.458 282.912C297.463 288.667 297.476 295.225 297.5 302.915L298.5 302.912C298.476 295.223 298.463 288.666 298.458 282.911L297.458 282.912ZM297.577 322.881C297.592 326.075 297.607 329.422 297.625 332.933L298.625 332.928C298.607 329.417 298.592 326.07 298.577 322.876L297.577 322.881ZM483.903 305.483C483.654 305.604 483.551 305.903 483.671 306.151C483.792 306.4 484.091 306.504 484.339 306.383L483.903 305.483ZM809.625 357.929C809.626 358.206 809.851 358.429 810.127 358.428C810.403 358.427 810.626 358.202 810.625 357.926L809.625 357.929ZM748.467 531.011C748.344 530.764 748.044 530.663 747.796 530.786C747.549 530.908 747.448 531.208 747.571 531.456L748.467 531.011ZM1068.12 338.93L1068.62 338.962L1068.62 338.946V338.93H1068.12ZM0.194352 0.47163C-0.0791212 0.433328 -0.331865 0.623972 -0.370167 0.897445C-0.408469 1.17092 -0.217825 1.42366 0.0556481 1.46196L0.194352 0.47163ZM298.125 212.944H298.625V212.904L298.619 212.866L298.125 212.944ZM297.625 332.933C297.626 333.209 297.851 333.432 298.127 333.43C298.403 333.429 298.626 333.204 298.625 332.928L297.625 332.933ZM1068.12 224.942L1067.63 224.868L1067.62 224.905V224.942H1068.12ZM1365.83 202.351C1366.06 202.512 1366.37 202.461 1366.53 202.236L1369.16 198.581C1369.32 198.357 1369.27 198.044 1369.04 197.883C1368.82 197.722 1368.5 197.773 1368.34 197.998L1366.01 201.247L1362.76 198.914C1362.54 198.753 1362.22 198.804 1362.06 199.029C1361.9 199.253 1361.95 199.565 1362.18 199.726L1365.83 202.351ZM493.13 302.23C493.381 302.114 493.491 301.817 493.376 301.567C493.26 301.316 492.963 301.206 492.712 301.321L493.13 302.23ZM510.61 293.499C510.355 293.605 510.234 293.897 510.34 294.152C510.446 294.408 510.738 294.529 510.993 294.423L510.61 293.499ZM529.123 287.303C529.382 287.207 529.514 286.919 529.418 286.66C529.322 286.402 529.034 286.27 528.775 286.366L529.123 287.303ZM547.2 279.908C546.938 279.994 546.795 280.277 546.882 280.539C546.968 280.801 547.251 280.944 547.513 280.857L547.2 279.908ZM566.129 275.098C566.394 275.022 566.547 274.744 566.47 274.479C566.393 274.214 566.116 274.061 565.851 274.138L566.129 275.098ZM584.712 269.078C584.444 269.144 584.28 269.415 584.346 269.683C584.413 269.951 584.684 270.115 584.952 270.048L584.712 269.078ZM603.944 265.752C604.215 265.696 604.389 265.432 604.334 265.161C604.279 264.891 604.014 264.716 603.744 264.772L603.944 265.752ZM622.965 261.269C622.692 261.313 622.506 261.569 622.55 261.842C622.593 262.115 622.849 262.3 623.122 262.257L622.965 261.269ZM642.423 259.652C642.698 259.622 642.896 259.375 642.866 259.1C642.836 258.826 642.589 258.628 642.314 258.658L642.423 259.652ZM661.775 257.044C661.499 257.059 661.288 257.295 661.303 257.571C661.318 257.847 661.554 258.058 661.829 258.043L661.775 257.044ZM681.298 257.577C681.574 257.58 681.8 257.358 681.802 257.082C681.805 256.805 681.583 256.58 681.307 256.577L681.298 257.577ZM700.828 257.46C700.553 257.437 700.311 257.641 700.288 257.916C700.264 258.191 700.469 258.433 700.744 258.456L700.828 257.46ZM720.002 260.943C720.273 260.991 720.533 260.81 720.581 260.538C720.63 260.266 720.449 260.007 720.177 259.958L720.002 260.943ZM739.234 264.455C738.969 264.375 738.691 264.525 738.611 264.79C738.532 265.054 738.682 265.333 738.946 265.413L739.234 264.455ZM757.097 272.301C757.347 272.418 757.645 272.311 757.763 272.061C757.88 271.811 757.773 271.513 757.523 271.396L757.097 272.301ZM774.402 281.277C774.178 281.115 773.865 281.165 773.703 281.389C773.542 281.612 773.592 281.925 773.815 282.087L774.402 281.277ZM788.144 295.066C788.327 295.273 788.643 295.294 788.85 295.112C789.058 294.93 789.078 294.614 788.896 294.406L788.144 295.066ZM799.946 310.537C799.818 310.293 799.516 310.198 799.271 310.326C799.027 310.453 798.932 310.755 799.06 311L799.946 310.537ZM806.017 329.032C806.088 329.299 806.362 329.458 806.629 329.387C806.895 329.315 807.054 329.041 806.983 328.775L806.017 329.032ZM810.226 348.083C810.204 347.807 809.963 347.602 809.688 347.624C809.413 347.646 809.207 347.886 809.229 348.162L810.226 348.083ZM752.072 540.242C752.201 540.486 752.503 540.58 752.747 540.451C752.992 540.322 753.085 540.019 752.956 539.775L752.072 540.242ZM762.448 556.635C762.306 556.398 761.999 556.321 761.762 556.464C761.525 556.606 761.449 556.913 761.591 557.15L762.448 556.635ZM772.085 573.479C772.242 573.707 772.553 573.764 772.78 573.607C773.008 573.451 773.065 573.139 772.908 572.912L772.085 573.479ZM784.445 588.451C784.272 588.235 783.958 588.201 783.742 588.374C783.527 588.546 783.492 588.861 783.665 589.076L784.445 588.451ZM796.442 603.72C796.632 603.919 796.949 603.927 797.148 603.737C797.348 603.546 797.356 603.23 797.166 603.03L796.442 603.72ZM811.163 616.346C810.953 616.166 810.637 616.19 810.458 616.4C810.278 616.61 810.302 616.925 810.512 617.105L811.163 616.346ZM825.938 628.836C826.167 628.989 826.478 628.927 826.631 628.697C826.784 628.468 826.722 628.157 826.493 628.004L825.938 628.836ZM843.281 637.589C843.031 637.47 842.733 637.576 842.614 637.825C842.495 638.074 842.601 638.373 842.85 638.492L843.281 637.589ZM861.031 645.415C861.297 645.491 861.574 645.337 861.65 645.072C861.726 644.806 861.572 644.53 861.307 644.454L861.031 645.415ZM880.22 648.035C879.945 648.01 879.702 648.212 879.676 648.487C879.65 648.762 879.852 649.005 880.127 649.031L880.22 648.035ZM899.584 648.953C899.859 648.925 900.059 648.68 900.031 648.405C900.003 648.13 899.758 647.93 899.483 647.958L899.584 648.953ZM918.371 644.194C918.106 644.273 917.956 644.552 918.035 644.816C918.114 645.081 918.392 645.231 918.657 645.152L918.371 644.194ZM936.733 637.989C936.981 637.866 937.081 637.566 936.959 637.319C936.836 637.072 936.536 636.971 936.288 637.094L936.733 637.989ZM952.894 627.197C952.668 627.355 952.613 627.667 952.771 627.893C952.929 628.12 953.241 628.175 953.467 628.017L952.894 627.197ZM968.607 615.909C968.812 615.724 968.828 615.408 968.643 615.203C968.457 614.998 968.141 614.982 967.936 615.168L968.607 615.909ZM981.536 601.43C981.352 601.636 981.37 601.952 981.576 602.136C981.782 602.32 982.098 602.302 982.282 602.096L981.536 601.43ZM994.549 586.989C994.713 586.767 994.667 586.454 994.445 586.289C994.223 586.125 993.91 586.171 993.745 586.393L994.549 586.989ZM1004.66 570.378C1004.51 570.612 1004.58 570.92 1004.81 571.067C1005.05 571.214 1005.36 571.143 1005.5 570.909L1004.66 570.378ZM1015.26 554.098C1015.39 553.854 1015.3 553.551 1015.05 553.421C1014.81 553.29 1014.51 553.381 1014.38 553.625L1015.26 554.098ZM1023.01 536.308C1022.9 536.559 1023.01 536.856 1023.26 536.972C1023.51 537.088 1023.81 536.979 1023.92 536.728L1023.01 536.308ZM1031.6 518.925C1031.7 518.668 1031.58 518.377 1031.32 518.275C1031.07 518.172 1030.78 518.296 1030.67 518.552L1031.6 518.925ZM1037.44 500.443C1037.35 500.704 1037.49 500.989 1037.75 501.08C1038.01 501.17 1038.29 501.032 1038.39 500.772L1037.44 500.443ZM1044.36 482.326C1044.44 482.061 1044.29 481.782 1044.02 481.703C1043.76 481.623 1043.48 481.773 1043.4 482.037L1044.36 482.326ZM1048.62 463.373C1048.55 463.64 1048.71 463.913 1048.98 463.983C1049.25 464.052 1049.52 463.891 1049.59 463.624L1048.62 463.373ZM1054.14 444.689C1054.2 444.42 1054.03 444.153 1053.76 444.093C1053.49 444.033 1053.22 444.203 1053.16 444.473L1054.14 444.689ZM1057.05 425.468C1056.99 425.739 1057.17 426.001 1057.44 426.052C1057.72 426.102 1057.98 425.924 1058.03 425.652L1057.05 425.468ZM1061.3 406.615C1061.34 406.342 1061.16 406.086 1060.88 406.043C1060.61 406.001 1060.36 406.187 1060.31 406.46L1061.3 406.615ZM1063.04 387.267C1063 387.541 1063.2 387.791 1063.47 387.826C1063.74 387.861 1063.99 387.667 1064.03 387.393L1063.04 387.267ZM1066.25 367.981C1066.27 367.706 1066.07 367.461 1065.8 367.433C1065.52 367.406 1065.28 367.606 1065.25 367.881L1066.25 367.981ZM1066.94 348.709C1066.92 348.984 1067.13 349.224 1067.4 349.245C1067.68 349.266 1067.92 349.06 1067.94 348.785L1066.94 348.709ZM1068.62 329.431C1068.62 329.155 1068.4 328.931 1068.12 328.931C1067.85 328.931 1067.62 329.155 1067.62 329.431H1068.62ZM1067.62 310.433C1067.62 310.709 1067.85 310.933 1068.12 310.933C1068.4 310.933 1068.62 310.709 1068.62 310.433H1067.62ZM1068.62 291.435C1068.62 291.159 1068.4 290.935 1068.12 290.935C1067.85 290.935 1067.62 291.159 1067.62 291.435H1068.62ZM1067.62 272.437C1067.62 272.713 1067.85 272.937 1068.12 272.937C1068.4 272.937 1068.62 272.713 1068.62 272.437H1067.62ZM1068.62 253.439C1068.62 253.163 1068.4 252.939 1068.12 252.939C1067.85 252.939 1067.62 253.163 1067.62 253.439H1068.62ZM1067.62 234.441C1067.62 234.717 1067.85 234.941 1068.12 234.941C1068.4 234.941 1068.62 234.717 1068.62 234.441H1067.62ZM1070.25 215.115C1070.3 214.843 1070.12 214.583 1069.84 214.535C1069.57 214.486 1069.31 214.667 1069.26 214.939L1070.25 215.115ZM1073.28 195.613C1073.21 195.882 1073.38 196.152 1073.65 196.216C1073.91 196.28 1074.18 196.114 1074.25 195.845L1073.28 195.613ZM1079.42 176.857C1079.51 176.593 1079.36 176.313 1079.09 176.231C1078.83 176.15 1078.55 176.298 1078.47 176.562L1079.42 176.857ZM1084.99 157.902C1084.89 158.159 1085.01 158.45 1085.27 158.551C1085.53 158.652 1085.82 158.525 1085.92 158.268L1084.99 157.902ZM1093.88 140.259C1094.01 140.012 1093.91 139.712 1093.66 139.589C1093.41 139.467 1093.11 139.568 1092.99 139.815L1093.88 140.259ZM1102.61 122.548C1102.47 122.782 1102.54 123.09 1102.77 123.237C1103.01 123.383 1103.32 123.312 1103.46 123.078L1102.61 122.548ZM1114.77 107.04C1114.94 106.824 1114.91 106.509 1114.69 106.337C1114.47 106.165 1114.16 106.201 1113.99 106.417L1114.77 107.04ZM1127.23 91.7441C1127.04 91.9366 1127.03 92.2532 1127.22 92.4512C1127.42 92.6492 1127.73 92.6536 1127.93 92.4611L1127.23 91.7441ZM1142.97 79.7669C1143.19 79.6045 1143.24 79.2918 1143.08 79.0684C1142.92 78.8451 1142.6 78.7956 1142.38 78.958L1142.97 79.7669ZM1159.19 68.5973C1158.94 68.7234 1158.85 69.0248 1158.97 69.2705C1159.1 69.5161 1159.4 69.6129 1159.65 69.4868L1159.19 68.5973ZM1177.8 61.9428C1178.07 61.8579 1178.21 61.5761 1178.13 61.3133C1178.04 61.0505 1177.76 60.9063 1177.5 60.9911L1177.8 61.9428ZM1196.76 56.4782C1196.49 56.5189 1196.3 56.7734 1196.34 57.0465C1196.38 57.3196 1196.63 57.508 1196.91 57.4672L1196.76 56.4782ZM1216.5 56.1492C1216.78 56.1528 1217 55.9319 1217.01 55.6558C1217.01 55.3796 1216.79 55.1529 1216.51 55.1493L1216.5 56.1492ZM1236.22 56.9485C1235.95 56.9024 1235.69 57.0857 1235.65 57.358C1235.6 57.6302 1235.78 57.8883 1236.06 57.9345L1236.22 56.9485ZM1255.14 62.6435C1255.4 62.729 1255.68 62.5854 1255.77 62.3229C1255.85 62.0603 1255.71 61.7781 1255.45 61.6926L1255.14 62.6435ZM1273.78 69.1188C1273.53 68.9978 1273.23 69.1009 1273.11 69.3491C1272.99 69.5973 1273.1 69.8966 1273.34 70.0177L1273.78 69.1188ZM1290.42 79.795C1290.65 79.9476 1290.96 79.8847 1291.11 79.6545C1291.26 79.4244 1291.2 79.1141 1290.97 78.9615L1290.42 79.795ZM1306.73 90.903C1306.52 90.7228 1306.2 90.7465 1306.02 90.9557C1305.84 91.165 1305.86 91.4807 1306.07 91.6609L1306.73 90.903ZM1320.19 105.376C1320.37 105.58 1320.69 105.595 1320.89 105.408C1321.1 105.222 1321.11 104.906 1320.92 104.702L1320.19 105.376ZM1333.39 120.055C1333.23 119.831 1332.92 119.781 1332.69 119.942C1332.47 120.104 1332.42 120.416 1332.58 120.64L1333.39 120.055ZM1343.18 137.202C1343.31 137.442 1343.62 137.527 1343.86 137.391C1344.1 137.255 1344.18 136.95 1344.05 136.71L1343.18 137.202ZM1352.85 154.456C1352.74 154.202 1352.45 154.086 1352.19 154.195C1351.94 154.305 1351.82 154.599 1351.93 154.852L1352.85 154.456ZM1358.8 173.28C1358.88 173.543 1359.16 173.689 1359.42 173.606C1359.69 173.522 1359.83 173.241 1359.75 172.978L1358.8 173.28ZM1364.78 192.079C1364.72 191.809 1364.45 191.637 1364.18 191.694C1363.91 191.751 1363.74 192.017 1363.8 192.287L1364.78 192.079ZM9.91903 2.87129C10.1923 2.91115 10.4461 2.72195 10.486 2.4487C10.5258 2.17545 10.3366 1.92162 10.0634 1.88176L9.91903 2.87129ZM29.756 4.89099C29.4834 4.84725 29.2269 5.03282 29.1831 5.30547C29.1394 5.57813 29.325 5.83462 29.5976 5.87836L29.756 4.89099ZM49.2278 9.20529C49.4996 9.25403 49.7595 9.07319 49.8082 8.80138C49.8569 8.52957 49.6761 8.26972 49.4043 8.22099L49.2278 9.20529ZM68.9741 11.9534C68.7034 11.8985 68.4395 12.0733 68.3846 12.3439C68.3296 12.6146 68.5045 12.8785 68.7751 12.9334L68.9741 11.9534ZM88.2266 17.1584C88.4956 17.2209 88.7643 17.0535 88.8268 16.7845C88.8894 16.5156 88.722 16.2469 88.453 16.1843L88.2266 17.1584ZM107.79 21.0146C107.523 20.943 107.249 21.1012 107.177 21.3679C107.106 21.6346 107.264 21.9088 107.531 21.9804L107.79 21.0146ZM126.634 27.5134C126.897 27.5957 127.178 27.4488 127.26 27.1852C127.342 26.9216 127.195 26.6412 126.932 26.5589L126.634 27.5134ZM145.827 32.9505C145.567 32.8556 145.28 32.9889 145.185 33.2482C145.09 33.5075 145.224 33.7947 145.483 33.8896L145.827 32.9505ZM163.949 41.2333C164.203 41.3428 164.497 41.226 164.607 40.9725C164.716 40.719 164.599 40.4247 164.346 40.3152L163.949 41.2333ZM182.394 48.8082C182.149 48.6822 181.847 48.7793 181.721 49.0251C181.595 49.2708 181.692 49.5721 181.938 49.6981L182.394 48.8082ZM199.276 59.4162C199.511 59.5604 199.819 59.4865 199.963 59.2511C200.108 59.0156 200.034 58.7078 199.798 58.5635L199.276 59.4162ZM216.351 69.6929C216.128 69.529 215.815 69.5762 215.651 69.7984C215.488 70.0206 215.535 70.3336 215.757 70.4976L216.351 69.6929ZM231.168 83.0206C231.373 83.2048 231.689 83.1874 231.874 82.9817C232.058 82.776 232.041 82.4599 231.835 82.2756L231.168 83.0206ZM246.013 96.3159C245.827 96.1119 245.511 96.0973 245.307 96.2834C245.103 96.4694 245.088 96.7857 245.274 96.9897L246.013 96.3159ZM257.866 112.325C258.03 112.547 258.343 112.595 258.566 112.431C258.788 112.267 258.835 111.954 258.671 111.731L257.866 112.325ZM269.673 128.385C269.532 128.147 269.226 128.067 268.988 128.208C268.75 128.348 268.671 128.654 268.811 128.892L269.673 128.385ZM278.037 146.48C278.154 146.73 278.451 146.839 278.701 146.723C278.952 146.607 279.061 146.309 278.944 146.059L278.037 146.48ZM286.496 164.498C286.403 164.238 286.117 164.103 285.857 164.196C285.597 164.289 285.462 164.576 285.555 164.836L286.496 164.498ZM291.482 183.833C291.554 184.1 291.828 184.258 292.095 184.186C292.361 184.115 292.52 183.84 292.448 183.574L291.482 183.833ZM296.893 202.978C296.841 202.707 296.579 202.529 296.307 202.581C296.036 202.633 295.859 202.895 295.911 203.166L296.893 202.978ZM297.618 222.968C297.618 223.244 297.841 223.469 298.117 223.469C298.393 223.469 298.618 223.246 298.618 222.97L297.618 222.968ZM298.559 242.946C298.56 242.67 298.337 242.445 298.061 242.444C297.785 242.442 297.56 242.665 297.559 242.941L298.559 242.946ZM297.477 262.925C297.476 263.201 297.699 263.426 297.975 263.426C298.251 263.427 298.476 263.204 298.477 262.928L297.477 262.925ZM298.458 282.911C298.458 282.635 298.234 282.411 297.958 282.411C297.682 282.412 297.458 282.636 297.458 282.912L298.458 282.911ZM297.5 302.915C297.501 303.191 297.726 303.414 298.002 303.413C298.278 303.412 298.501 303.188 298.5 302.912L297.5 302.915ZM298.577 322.876C298.576 322.6 298.351 322.377 298.075 322.379C297.799 322.38 297.576 322.605 297.577 322.881L298.577 322.876ZM484.339 306.383C487.243 304.976 490.174 303.591 493.13 302.23L492.712 301.321C489.75 302.685 486.813 304.073 483.903 305.483L484.339 306.383ZM510.993 294.423C516.966 291.947 523.016 289.572 529.123 287.303L528.775 286.366C522.656 288.638 516.595 291.019 510.61 293.499L510.993 294.423ZM547.513 280.857C553.687 278.821 559.899 276.898 566.129 275.098L565.851 274.138C559.609 275.941 553.386 277.867 547.2 279.908L547.513 280.857ZM584.952 270.048C591.29 268.48 597.628 267.045 603.944 265.752L603.744 264.772C597.414 266.068 591.063 267.506 584.712 269.078L584.952 270.048ZM623.122 262.257C629.608 261.224 636.049 260.353 642.423 259.652L642.314 258.658C635.923 259.36 629.466 260.234 622.965 261.269L623.122 262.257ZM661.829 258.043C668.429 257.681 674.928 257.522 681.298 257.577L681.307 256.577C674.914 256.522 668.394 256.681 661.775 257.044L661.829 258.043ZM700.744 258.456C707.36 259.014 713.791 259.838 720.002 260.943L720.177 259.958C713.934 258.848 707.472 258.02 700.828 257.46L700.744 258.456ZM738.946 265.413C745.335 267.332 751.402 269.622 757.097 272.301L757.523 271.396C751.778 268.694 745.666 266.388 739.234 264.455L738.946 265.413ZM773.815 282.087C779.111 285.92 783.908 290.238 788.144 295.066L788.896 294.406C784.607 289.519 779.754 285.151 774.402 281.277L773.815 282.087ZM799.06 311C801.945 316.526 804.281 322.529 806.017 329.032L806.983 328.775C805.229 322.203 802.866 316.13 799.946 310.537L799.06 311ZM809.229 348.162C809.48 351.323 809.613 354.578 809.625 357.929L810.625 357.926C810.613 354.55 810.479 351.27 810.226 348.083L809.229 348.162ZM747.571 531.456C749.054 534.443 750.555 537.371 752.072 540.242L752.956 539.775C751.443 536.912 749.946 533.99 748.467 531.011L747.571 531.456ZM761.591 557.15C765.021 562.863 768.521 568.306 772.085 573.479L772.908 572.912C769.357 567.757 765.868 562.332 762.448 556.635L761.591 557.15ZM783.665 589.076C787.855 594.302 792.118 599.182 796.442 603.72L797.166 603.03C792.862 598.514 788.619 593.655 784.445 588.451L783.665 589.076ZM810.512 617.105C815.593 621.459 820.74 625.368 825.938 628.836L826.493 628.004C821.331 624.56 816.215 620.675 811.163 616.346L810.512 617.105ZM842.85 638.492C848.876 641.367 854.944 643.673 861.031 645.415L861.307 644.454C855.275 642.728 849.258 640.442 843.281 637.589L842.85 638.492ZM880.127 649.031C886.631 649.638 893.126 649.61 899.584 648.953L899.483 647.958C893.089 648.608 886.659 648.636 880.22 648.035L880.127 649.031ZM918.657 645.152C924.752 643.334 930.786 640.944 936.733 637.989L936.288 637.094C930.39 640.024 924.409 642.393 918.371 644.194L918.657 645.152ZM953.467 628.017C958.608 624.424 963.661 620.387 968.607 615.909L967.936 615.168C963.019 619.619 957.999 623.63 952.894 627.197L953.467 628.017ZM982.282 602.096C986.471 597.401 990.564 592.364 994.549 586.989L993.745 586.393C989.778 591.745 985.704 596.759 981.536 601.43L982.282 602.096ZM1005.5 570.909C1008.85 565.57 1012.11 559.965 1015.26 554.098L1014.38 553.625C1011.24 559.473 1007.99 565.058 1004.66 570.378L1005.5 570.909ZM1023.92 536.728C1026.57 531.005 1029.14 525.07 1031.6 518.925L1030.67 518.552C1028.21 524.682 1025.66 530.601 1023.01 536.308L1023.92 536.728ZM1038.39 500.772C1040.46 494.796 1042.46 488.647 1044.36 482.326L1043.4 482.037C1041.5 488.346 1039.51 494.481 1037.44 500.443L1038.39 500.772ZM1049.59 463.624C1051.19 457.459 1052.71 451.148 1054.14 444.689L1053.16 444.473C1051.73 450.92 1050.22 457.22 1048.62 463.373L1049.59 463.624ZM1058.03 425.652C1059.2 419.43 1060.29 413.084 1061.3 406.615L1060.31 406.46C1059.3 412.92 1058.21 419.256 1057.05 425.468L1058.03 425.652ZM1064.03 387.393C1064.84 381.033 1065.58 374.562 1066.25 367.981L1065.25 367.881C1064.59 374.453 1063.85 380.915 1063.04 387.267L1064.03 387.393ZM1067.94 348.785C1068.18 345.535 1068.41 342.261 1068.62 338.962L1067.63 338.898C1067.42 342.193 1067.19 345.464 1066.94 348.709L1067.94 348.785ZM1068.62 338.93V329.431H1067.62V338.93H1068.62ZM1068.62 310.433V291.435H1067.62V310.433H1068.62ZM1068.62 272.437V253.439H1067.62V272.437H1068.62ZM1068.62 234.441V224.942H1067.62V234.441H1068.62ZM1068.62 225.017C1069.13 221.661 1069.67 218.361 1070.25 215.115L1069.26 214.939C1068.68 218.194 1068.14 221.504 1067.63 224.868L1068.62 225.017ZM1074.25 195.845C1075.82 189.264 1077.55 182.936 1079.42 176.857L1078.47 176.562C1076.58 182.662 1074.85 189.011 1073.28 195.613L1074.25 195.845ZM1085.92 158.268C1088.4 151.951 1091.06 145.95 1093.88 140.259L1092.99 139.815C1090.15 145.532 1087.48 151.559 1084.99 157.902L1085.92 158.268ZM1103.46 123.078C1107.05 117.341 1110.83 111.998 1114.77 107.04L1113.99 106.417C1110.02 111.406 1106.22 116.78 1102.61 122.548L1103.46 123.078ZM1127.93 92.4611C1132.77 87.7525 1137.8 83.5257 1142.97 79.7669L1142.38 78.958C1137.17 82.7454 1132.11 87.003 1127.23 91.7441L1127.93 92.4611ZM1159.65 69.4868C1165.58 66.4386 1171.65 63.9298 1177.8 61.9428L1177.5 60.9911C1171.29 62.9948 1165.17 65.5244 1159.19 68.5973L1159.65 69.4868ZM1196.91 57.4672C1203.41 56.497 1209.95 56.064 1216.5 56.1492L1216.51 55.1493C1209.91 55.0634 1203.31 55.4998 1196.76 56.4782L1196.91 57.4672ZM1236.06 57.9345C1242.48 59.0225 1248.86 60.5983 1255.14 62.6435L1255.45 61.6926C1249.12 59.6326 1242.7 58.0449 1236.22 56.9485L1236.06 57.9345ZM1273.34 70.0177C1279.18 72.8626 1284.88 76.1273 1290.42 79.795L1290.97 78.9615C1285.4 75.2699 1279.66 71.9833 1273.78 69.1188L1273.34 70.0177ZM1306.07 91.6609C1310.98 95.8867 1315.7 100.463 1320.19 105.376L1320.92 104.702C1316.41 99.7596 1311.67 95.1551 1306.73 90.903L1306.07 91.6609ZM1332.58 120.64C1336.36 125.878 1339.9 131.402 1343.18 137.202L1344.05 136.71C1340.75 130.879 1337.19 125.323 1333.39 120.055L1332.58 120.64ZM1351.93 154.852C1354.49 160.768 1356.78 166.913 1358.8 173.28L1359.75 172.978C1357.73 166.58 1355.42 160.402 1352.85 154.456L1351.93 154.852ZM1363.8 192.287C1364.48 195.487 1365.09 198.733 1365.63 202.026L1366.62 201.864C1366.08 198.556 1365.46 195.294 1364.78 192.079L1363.8 192.287ZM0.0556481 1.46196C3.35251 1.92371 6.64064 2.39307 9.91903 2.87129L10.0634 1.88176C6.78296 1.40325 3.49294 0.933623 0.194352 0.47163L0.0556481 1.46196ZM29.5976 5.87836C36.193 6.93647 42.7392 8.0419 49.2278 9.20529L49.4043 8.22099C42.9091 7.0564 36.3567 5.94995 29.756 4.89099L29.5976 5.87836ZM68.7751 12.9334C75.3328 14.2649 81.8198 15.6693 88.2266 17.1584L88.453 16.1843C82.0363 14.693 75.5401 13.2866 68.9741 11.9534L68.7751 12.9334ZM107.531 21.9804C113.998 23.7166 120.37 25.5566 126.634 27.5134L126.932 26.5589C120.654 24.5978 114.27 22.754 107.79 21.0146L107.531 21.9804ZM145.483 33.8896C151.771 36.1915 157.93 38.6345 163.949 41.2333L164.346 40.3152C158.308 37.7084 152.131 35.2585 145.827 32.9505L145.483 33.8896ZM181.938 49.6981C187.887 52.7474 193.67 55.9812 199.276 59.4162L199.798 58.5635C194.17 55.1146 188.364 51.8684 182.394 48.8082L181.938 49.6981ZM215.757 70.4976C221.098 74.4389 226.24 78.6074 231.168 83.0206L231.835 82.2756C226.883 77.8406 221.717 73.6522 216.351 69.6929L215.757 70.4976ZM245.274 96.9897C249.698 101.841 253.9 106.947 257.866 112.325L258.671 111.731C254.684 106.325 250.46 101.192 246.013 96.3159L245.274 96.9897ZM268.811 128.892C272.112 134.492 275.191 140.35 278.037 146.48L278.944 146.059C276.085 139.899 272.99 134.013 269.673 128.385L268.811 128.892ZM285.555 164.836C287.738 170.925 289.716 177.254 291.482 183.833L292.448 183.574C290.675 176.969 288.688 170.614 286.496 164.498L285.555 164.836ZM295.911 203.166C296.531 206.397 297.104 209.681 297.631 213.021L298.619 212.866C298.09 209.515 297.515 206.219 296.893 202.978L295.911 203.166ZM297.625 212.944C297.625 216.567 297.622 219.887 297.618 222.968L298.618 222.97C298.622 219.887 298.625 216.567 298.625 212.944H297.625ZM297.559 242.941C297.529 249.67 297.497 255.782 297.477 262.925L298.477 262.928C298.497 255.786 298.529 249.676 298.559 242.946L297.559 242.941ZM297.458 282.912C297.463 288.667 297.476 295.225 297.5 302.915L298.5 302.912C298.476 295.223 298.463 288.666 298.458 282.911L297.458 282.912ZM297.577 322.881C297.592 326.075 297.607 329.422 297.625 332.933L298.625 332.928C298.607 329.417 298.592 326.07 298.577 322.876L297.577 322.881Z" fill="#131241"/>
</svg>
